<mxfile host="65bd71144e">
    <diagram id="Ne9W5e-0ec1TSnVYc7ql" name="Page-1">
        <mxGraphModel dx="1776" dy="1042" grid="1" gridSize="10" guides="1" tooltips="1" connect="1" arrows="1" fold="1" page="1" pageScale="1" pageWidth="1200" pageHeight="1600" math="0" shadow="0">
            <root>
                <mxCell id="0"/>
                <mxCell id="1" parent="0"/>
                <mxCell id="2" value="&lt;span style=&quot;font-size: 14px;&quot;&gt;&amp;nbsp; &amp;nbsp; &amp;nbsp;Table-Column-1&amp;nbsp; &amp;nbsp; Column-2&amp;nbsp; &amp;nbsp;Column-3&amp;nbsp;&amp;nbsp;&lt;/span&gt;" style="rounded=1;whiteSpace=wrap;html=1;fillColor=#4C3F5C;strokeColor=none;align=left;" vertex="1" parent="1">
                    <mxGeometry x="40" y="280" width="390" height="50" as="geometry"/>
                </mxCell>
                <mxCell id="6" value="&lt;b&gt;&lt;font style=&quot;font-size: 14px;&quot;&gt;Order 'Feature' By&lt;/font&gt;&lt;/b&gt;" style="text;html=1;align=center;verticalAlign=middle;resizable=0;points=[];autosize=1;strokeColor=none;fillColor=none;" vertex="1" parent="1">
                    <mxGeometry x="40" y="250" width="140" height="30" as="geometry"/>
                </mxCell>
                <mxCell id="8" value="Column 4" style="rounded=1;whiteSpace=wrap;html=1;fontSize=14;fillColor=default;strokeColor=none;" vertex="1" parent="1">
                    <mxGeometry x="320" y="285" width="100" height="40" as="geometry"/>
                </mxCell>
            </root>
        </mxGraphModel>
    </diagram>
</mxfile>